<?xml version="1.0" standalone="no"?>
<!DOCTYPE svg PUBLIC "-//W3C//DTD SVG 20010904//EN"
 "http://www.w3.org/TR/2001/REC-SVG-20010904/DTD/svg10.dtd">
<svg version="1.0" xmlns="http://www.w3.org/2000/svg"
 width="512.000000pt" height="512.000000pt" viewBox="0 0 512.000000 512.000000"
 preserveAspectRatio="xMidYMid meet">
<metadata>
Created by potrace 1.14, written by Peter Selinger 2001-2017
</metadata>
<g transform="translate(0.000000,512.000000) scale(0.100000,-0.100000)"
fill="#000000" stroke="none">
<path d="M1934 5089 c89 -10 112 -27 160 -120 21 -41 80 -146 131 -234 51 -88
114 -200 140 -250 27 -49 72 -132 102 -183 29 -51 53 -94 53 -96 0 -3 18 -37
41 -76 22 -40 39 -74 37 -76 -2 -2 -28 3 -58 11 -30 8 -104 25 -165 36 -122
24 -188 22 -414 -8 l-123 -17 -87 -93 -86 -93 -6 37 c-5 28 -7 18 -8 -39 0
-44 3 -80 10 -83 5 -4 21 5 33 18 30 32 110 57 201 64 73 5 362 -33 440 -59
l40 -13 -3 -103 -4 -102 34 0 c18 0 76 -14 128 -30 105 -33 103 -33 97 -22 -3
4 -1 48 4 97 4 50 13 147 20 216 l11 125 -45 80 c-273 487 -521 927 -541 962
-31 51 -57 62 -144 61 l-67 -2 69 -8z"/>
<path d="M1791 5064 c-69 -35 -77 -56 -85 -219 -3 -71 -8 -175 -10 -230 -3
-55 3 -14 12 90 9 105 21 196 25 203 5 7 10 31 12 53 5 54 25 82 77 107 24 12
38 21 32 22 -5 0 -34 -12 -63 -26z"/>
<path d="M4324 4855 c-66 -46 -135 -98 -154 -115 -19 -18 -8 -12 25 13 33 24
107 76 164 116 57 39 99 71 94 71 -6 0 -64 -38 -129 -85z"/>
<path d="M4506 4911 c21 -16 52 -42 68 -59 l28 -31 -39 -38 c-21 -21 -55 -58
-75 -83 -20 -25 -49 -58 -63 -75 -15 -16 -35 -41 -44 -55 -21 -32 -49 -67 -83
-102 -14 -15 -37 -45 -49 -65 -13 -21 -26 -40 -30 -43 -4 -3 -23 -26 -43 -52
-19 -26 -43 -56 -53 -66 -32 -35 -87 -103 -104 -130 -9 -15 -26 -37 -38 -49
-12 -13 -19 -23 -16 -23 4 0 0 -6 -7 -14 -13 -14 -44 -52 -77 -95 l-18 -25
-94 57 c-52 31 -102 57 -111 57 -9 0 -54 9 -100 19 -46 11 -103 22 -129 25
l-45 7 -12 -48 c-13 -52 -23 -107 -77 -418 -40 -230 -61 -316 -77 -326 -19
-12 -25 -3 -27 47 -2 60 -8 67 -16 18 -4 -22 -16 -70 -27 -107 -11 -38 -18
-69 -17 -71 2 -1 23 -14 47 -29 23 -15 76 -60 117 -98 71 -67 74 -72 57 -88
-11 -10 -12 -12 -2 -6 8 5 2 -5 -14 -22 -16 -18 -32 -31 -35 -30 -3 1 -16 -4
-29 -11 -12 -7 -28 -10 -35 -6 -6 5 -5 -1 3 -11 14 -17 14 -18 -6 -7 -18 9
-24 9 -34 -3 -11 -13 -10 -15 6 -9 18 5 18 5 1 -6 -9 -6 -22 -8 -27 -5 -6 3
-10 1 -10 -6 0 -10 -3 -10 -12 -1 -7 7 -24 12 -38 12 -15 0 -35 9 -44 19 -10
11 -24 17 -32 14 -8 -3 -14 0 -14 6 0 8 -6 7 -21 -1 -18 -11 -23 -11 -26 0 -4
10 -8 10 -21 0 -13 -11 -14 -11 -7 2 8 13 7 13 -8 1 -11 -9 -17 -10 -17 -2 0
6 -9 11 -20 11 -11 0 -23 6 -26 14 -3 8 -13 16 -23 19 -24 6 -21 -43 7 -105
25 -56 69 -233 75 -304 5 -48 4 -51 -15 -46 -14 3 -19 1 -14 -6 5 -8 2 -10 -8
-6 -9 3 -16 2 -16 -4 0 -6 -9 -8 -20 -5 -11 3 -20 0 -20 -6 0 -6 -3 -10 -7
-10 -5 1 -10 1 -13 -1 -3 -1 -16 -3 -29 -6 -14 -2 -30 -9 -36 -14 -7 -5 -15
-7 -18 -3 -4 3 -14 0 -22 -7 -9 -8 -26 -15 -38 -16 -66 -9 -147 -34 -147 -46
0 -4 -5 -8 -11 -8 -5 0 -8 3 -6 8 3 4 -9 7 -26 8 -18 0 -44 3 -59 7 l-26 7 57
57 c48 49 61 70 80 131 19 59 23 86 18 145 -8 114 -38 181 -114 256 -44 43
-61 66 -53 71 7 4 94 13 193 20 216 16 217 17 217 113 0 36 5 68 12 75 9 9 9
12 -1 12 -11 0 -12 16 -9 68 3 37 3 56 1 42 -3 -14 -10 -31 -16 -39 -11 -13
-14 -34 -16 -123 -1 -46 -2 -47 -38 -58 -42 -11 -241 -38 -318 -42 -46 -3 -50
-5 -53 -30 -4 -32 -7 -33 -114 -18 -40 5 -89 12 -108 14 -19 2 -42 7 -50 10
-8 3 -31 1 -50 -4 l-35 -9 35 2 c19 0 40 -2 45 -5 6 -3 32 -9 58 -12 88 -13
157 -101 144 -183 -12 -70 -96 -142 -167 -143 -75 0 -151 47 -178 110 l-15 35
-15 -40 c-9 -24 -15 -76 -15 -130 -1 -77 3 -98 26 -148 14 -32 40 -75 57 -95
16 -20 30 -40 30 -43 0 -11 -148 -21 -211 -14 -55 7 -59 8 -53 30 7 28 -26 94
-94 191 -47 66 -82 90 -82 56 0 -12 -3 -12 -15 -2 -9 8 -15 8 -15 2 0 -10 -74
-40 -76 -31 0 2 -8 -2 -17 -10 -10 -7 -17 -10 -17 -7 0 4 -10 1 -22 -6 -13 -6
-27 -13 -33 -14 -5 -1 -31 -9 -58 -17 -26 -8 -56 -13 -67 -10 -15 4 -27 -8
-57 -56 -37 -58 -55 -72 -68 -51 -3 6 -29 10 -57 10 l-51 0 7 -47 c3 -26 20
-71 36 -100 l30 -53 -27 -1 c-16 0 -75 -4 -133 -8 -123 -10 -199 -36 -264 -89
-60 -49 -206 -231 -206 -257 1 -35 36 -100 71 -129 29 -24 39 -28 81 -24 41 4
61 16 143 79 223 174 311 238 345 248 35 10 120 4 120 -8 0 -19 90 -141 150
-205 219 -230 464 -400 661 -460 278 -84 563 -43 842 121 l78 45 49 -21 c27
-11 53 -21 59 -21 5 0 119 -109 253 -243 268 -268 313 -301 403 -301 60 0 118
26 146 65 86 121 -4 635 -154 875 -20 32 -35 59 -33 61 2 2 25 -1 52 -7 55
-13 205 -15 249 -4 48 11 101 41 206 116 191 137 252 235 203 329 -28 54 -244
136 -404 153 -50 6 -50 6 100 -31 191 -46 312 -110 280 -148 -7 -8 -17 -15
-23 -15 -6 0 -43 -25 -82 -54 -73 -57 -151 -96 -188 -96 -12 0 -44 11 -70 24
l-48 25 -9 -24 c-14 -37 -48 -52 -133 -59 -83 -6 -127 4 -127 29 0 26 -30 77
-71 122 -43 46 -47 59 -51 155 -4 61 -2 68 17 71 19 4 18 4 -2 6 -17 1 -25 10
-33 44 -14 57 -49 145 -73 186 l-21 34 28 22 c14 12 111 72 214 134 203 122
254 154 440 274 79 51 128 90 138 109 8 16 86 241 173 501 88 260 187 554 222
654 l63 183 -44 46 c-51 52 -196 164 -212 164 -6 0 7 -13 28 -29z m-1180
-2665 c255 -137 392 -300 465 -556 27 -92 25 -155 -7 -219 -38 -75 -71 -93
-159 -88 -91 5 -180 51 -355 183 -63 47 -131 84 -169 90 -43 8 -61 41 -61 114
0 61 12 160 25 200 5 16 -1 17 -59 16 -57 -2 -64 0 -53 13 23 28 179 176 195
185 25 14 52 47 63 79 6 15 16 27 22 27 7 0 49 -20 93 -44z m-1559 -38 c17
-19 37 -29 71 -33 389 -53 768 -165 954 -282 34 -21 37 -25 28 -49 -19 -48 4
-122 56 -183 15 -18 23 -31 18 -29 -5 1 -54 -20 -109 -48 -109 -56 -219 -95
-335 -119 -102 -20 -104 -20 -84 10 9 14 14 31 11 39 -3 7 -50 44 -104 82
-104 72 -515 379 -671 501 -52 41 -111 84 -133 96 -21 12 -39 25 -39 28 0 3
53 13 118 23 65 9 124 21 132 26 15 9 41 -9 87 -62z m-451 -5 c38 8 70 14 71
13 5 -4 62 -370 58 -374 -9 -9 -143 135 -171 184 -28 48 -97 155 -132 203 -16
24 -15 24 44 -8 l61 -32 69 14z"/>
<path d="M4060 4659 c-36 -27 -98 -74 -137 -104 -40 -31 -73 -57 -73 -60 0 -3
29 16 64 43 180 134 229 173 214 172 -2 0 -32 -23 -68 -51z"/>
<path d="M3800 4459 l-35 -30 38 26 c33 24 43 35 34 35 -1 0 -18 -14 -37 -31z"/>
<path d="M1675 4310 c-4 -83 -5 -153 -2 -156 2 -3 8 63 12 146 4 83 5 154 2
156 -3 3 -8 -63 -12 -146z"/>
<path d="M3670 4364 c-77 -60 -130 -105 -90 -78 37 25 180 137 180 140 0 7 -4
4 -90 -62z"/>
<path d="M3442 4190 c-62 -50 -121 -104 -131 -120 -16 -27 -37 -121 -90 -415
-25 -136 -35 -228 -22 -200 5 11 10 34 10 52 1 17 8 60 16 95 8 35 21 108 30
163 24 159 55 277 82 312 13 18 69 70 123 114 88 72 107 90 98 89 -2 0 -54
-41 -116 -90z"/>
<path d="M1663 4060 c0 -47 2 -66 4 -42 2 23 2 61 0 85 -2 23 -4 4 -4 -43z"/>
<path d="M1062 2897 c-35 -92 -46 -181 -42 -337 1 -55 3 -62 13 -46 7 11 25
34 41 53 27 32 29 37 27 131 0 53 3 114 8 135 8 35 8 37 -15 37 -27 0 -29 6
-14 46 6 15 9 29 6 31 -2 2 -13 -20 -24 -50z"/>
<path d="M3748 2603 c17 -2 47 -2 65 0 17 2 3 4 -33 4 -36 0 -50 -2 -32 -4z"/>
<path d="M3653 2593 c9 -2 23 -2 30 0 6 3 -1 5 -18 5 -16 0 -22 -2 -12 -5z"/>
<path d="M3878 2593 c12 -2 30 -2 40 0 9 3 -1 5 -23 4 -22 0 -30 -2 -17 -4z"/>
<path d="M779 2463 l-24 -28 28 24 c25 23 32 31 24 31 -2 0 -14 -12 -28 -27z"/>
<path d="M729 2413 c-13 -16 -12 -17 4 -4 9 7 17 15 17 17 0 8 -8 3 -21 -13z"/>
</g>
</svg>
